<svg width="106" height="60" viewBox="0 0 106 60" fill="none" xmlns="http://www.w3.org/2000/svg">
<path d="M24.1462 21.103H24.1433C21.7453 21.103 19.8013 22.8306 19.8013 24.9617V24.9642C19.8013 27.0953 21.7453 28.8229 24.1433 28.8229H24.1462C26.5442 28.8229 28.4882 27.0953 28.4882 24.9642V24.9617C28.4882 22.8306 26.5442 21.103 24.1462 21.103Z" fill="#2196F3"/>
<path d="M56.195 19.8695C56.1882 16.9095 54.8623 14.0725 52.5074 11.9792C50.1525 9.88592 46.9604 8.70692 43.6297 8.7002V8.7002C40.298 8.70557 37.1045 9.88398 34.7484 11.9774C32.3922 14.0708 31.0655 16.9087 31.0587 19.8695V19.8695V36.1924C31.0587 36.1924 56.1922 33.7047 56.195 19.8721V19.8695Z" fill="#2196F3"/>
<path d="M11 41.55C11.006 43.6096 11.9291 45.5833 13.5676 47.0399C15.2061 48.4965 17.4267 49.3175 19.7442 49.3235V49.3235C22.0612 49.3175 24.2814 48.4968 25.9197 47.0408C27.5581 45.5847 28.4816 43.6117 28.4884 41.5525V41.5525V30.1948C28.4884 30.1948 11 31.9271 11 41.55ZM19.7442 43.5849C19.2913 43.5849 18.8486 43.4656 18.472 43.242C18.0955 43.0184 17.802 42.7005 17.6287 42.3287C17.4554 41.9569 17.41 41.5477 17.4984 41.153C17.5867 40.7582 17.8048 40.3956 18.125 40.111C18.4453 39.8264 18.8533 39.6326 19.2975 39.5541C19.7416 39.4756 20.202 39.5159 20.6205 39.6699C21.0389 39.8239 21.3965 40.0847 21.6481 40.4194C21.8997 40.754 22.034 41.1475 22.034 41.55C22.0351 41.8178 21.9767 42.0833 21.8622 42.3311C21.7476 42.5788 21.5791 42.8041 21.3664 42.9938C21.1536 43.1836 20.9008 43.3342 20.6224 43.4369C20.3441 43.5397 20.0456 43.5926 19.7442 43.5926V43.5849Z" fill="#2196F3"/>
<path d="M37.4177 42.4639H35.7302V44.207H34.8513V39.9414H37.6286V40.6533H35.7302V41.7549H37.4177V42.4639ZM41.6423 42.1709C41.6423 42.5908 41.5681 42.959 41.4196 43.2754C41.2712 43.5918 41.0583 43.8359 40.7809 44.0078C40.5056 44.1797 40.1891 44.2656 39.8317 44.2656C39.4782 44.2656 39.1628 44.1807 38.8854 44.0107C38.6081 43.8408 38.3932 43.5986 38.2409 43.2842C38.0886 42.9678 38.0114 42.6045 38.0095 42.1943V41.9834C38.0095 41.5635 38.0847 41.1943 38.235 40.876C38.3874 40.5557 38.6013 40.3105 38.8766 40.1406C39.154 39.9688 39.4704 39.8828 39.8259 39.8828C40.1813 39.8828 40.4968 39.9688 40.7722 40.1406C41.0495 40.3105 41.2634 40.5557 41.4138 40.876C41.5661 41.1943 41.6423 41.5625 41.6423 41.9805V42.1709ZM40.7516 41.9775C40.7516 41.5303 40.6716 41.1904 40.5114 40.958C40.3513 40.7256 40.1227 40.6094 39.8259 40.6094C39.5309 40.6094 39.3034 40.7246 39.1432 40.9551C38.9831 41.1836 38.902 41.5195 38.9001 41.9629V42.1709C38.9001 42.6064 38.9802 42.9443 39.1403 43.1846C39.3005 43.4248 39.5309 43.5449 39.8317 43.5449C40.1266 43.5449 40.3532 43.4297 40.5114 43.1992C40.6696 42.9668 40.7497 42.6289 40.7516 42.1855V41.9775ZM44.4929 43.0879C44.4929 42.9219 44.4343 42.7949 44.3171 42.707C44.1999 42.6172 43.989 42.5234 43.6843 42.4258C43.3796 42.3262 43.1384 42.2285 42.9606 42.1328C42.4763 41.8711 42.2341 41.5186 42.2341 41.0752C42.2341 40.8447 42.2985 40.6396 42.4274 40.46C42.5583 40.2783 42.7448 40.1367 42.987 40.0352C43.2311 39.9336 43.5046 39.8828 43.8073 39.8828C44.112 39.8828 44.3835 39.9385 44.6218 40.0498C44.86 40.1592 45.0446 40.3145 45.1755 40.5156C45.3083 40.7168 45.3747 40.9453 45.3747 41.2012H44.4958C44.4958 41.0059 44.4343 40.8545 44.3112 40.7471C44.1882 40.6377 44.0153 40.583 43.7927 40.583C43.5778 40.583 43.4108 40.6289 43.2917 40.7207C43.1725 40.8105 43.113 40.9297 43.113 41.0781C43.113 41.2168 43.1823 41.333 43.321 41.4268C43.4616 41.5205 43.6677 41.6084 43.9391 41.6904C44.4391 41.8408 44.8034 42.0273 45.0319 42.25C45.2604 42.4727 45.3747 42.75 45.3747 43.082C45.3747 43.4512 45.235 43.7412 44.9557 43.9521C44.6765 44.1611 44.3005 44.2656 43.8278 44.2656C43.4997 44.2656 43.2009 44.2061 42.9313 44.0869C42.6618 43.9658 42.4557 43.8008 42.3132 43.5918C42.1725 43.3828 42.1022 43.1406 42.1022 42.8652H42.9841C42.9841 43.3359 43.2653 43.5713 43.8278 43.5713C44.0368 43.5713 44.1999 43.5293 44.3171 43.4453C44.4343 43.3594 44.4929 43.2402 44.4929 43.0879ZM49.1833 40.6533H47.8766V44.207H46.9977V40.6533H45.7087V39.9414H49.1833V40.6533ZM52.2536 42.3584H50.5661V43.501H52.5466V44.207H49.6872V39.9414H52.5407V40.6533H50.5661V41.6699H52.2536V42.3584ZM54.6413 42.6455H53.9411V44.207H53.0622V39.9414H54.6472C55.1511 39.9414 55.5397 40.0537 55.8132 40.2783C56.0866 40.5029 56.2233 40.8203 56.2233 41.2305C56.2233 41.5215 56.1599 41.7646 56.0329 41.96C55.9079 42.1533 55.7175 42.3076 55.4616 42.4229L56.3845 44.166V44.207H55.4411L54.6413 42.6455ZM53.9411 41.9336H54.6501C54.8708 41.9336 55.0417 41.8779 55.1628 41.7666C55.2839 41.6533 55.3444 41.498 55.3444 41.3008C55.3444 41.0996 55.2868 40.9414 55.1716 40.8262C55.0583 40.7109 54.8835 40.6533 54.6472 40.6533H53.9411V41.9336ZM59.2673 42.7041V44.207H58.3884V39.9414H60.0524C60.3727 39.9414 60.654 40 60.8962 40.1172C61.1403 40.2344 61.3278 40.4014 61.4587 40.6182C61.5895 40.833 61.655 41.0781 61.655 41.3535C61.655 41.7715 61.5114 42.1016 61.2243 42.3438C60.9391 42.584 60.5436 42.7041 60.0378 42.7041H59.2673ZM59.2673 41.9922H60.0524C60.2849 41.9922 60.4616 41.9375 60.5827 41.8281C60.7057 41.7188 60.7673 41.5625 60.7673 41.3594C60.7673 41.1504 60.7057 40.9814 60.5827 40.8525C60.4597 40.7236 60.2897 40.6572 60.0729 40.6533H59.2673V41.9922ZM64.8278 42.3584H63.1403V43.501H65.1208V44.207H62.2614V39.9414H65.1149V40.6533H63.1403V41.6699H64.8278V42.3584ZM68.9059 40.6533H67.5993V44.207H66.7204V40.6533H65.4313V39.9414H68.9059V40.6533ZM71.9763 42.3584H70.2888V43.501H72.2692V44.207H69.4099V39.9414H72.2634V40.6533H70.2888V41.6699H71.9763V42.3584ZM74.364 42.6455H73.6638V44.207H72.7849V39.9414H74.3698C74.8737 39.9414 75.2624 40.0537 75.5358 40.2783C75.8093 40.5029 75.946 40.8203 75.946 41.2305C75.946 41.5215 75.8825 41.7646 75.7556 41.96C75.6306 42.1533 75.4401 42.3076 75.1843 42.4229L76.1071 44.166V44.207H75.1638L74.364 42.6455ZM73.6638 41.9336H74.3727C74.5934 41.9336 74.7643 41.8779 74.8854 41.7666C75.0065 41.6533 75.0671 41.498 75.0671 41.3008C75.0671 41.0996 75.0095 40.9414 74.8942 40.8262C74.7809 40.7109 74.6061 40.6533 74.3698 40.6533H73.6638V41.9336ZM78.8288 43.0879C78.8288 42.9219 78.7702 42.7949 78.653 42.707C78.5358 42.6172 78.3249 42.5234 78.0202 42.4258C77.7155 42.3262 77.4743 42.2285 77.2966 42.1328C76.8122 41.8711 76.57 41.5186 76.57 41.0752C76.57 40.8447 76.6345 40.6396 76.7634 40.46C76.8942 40.2783 77.0807 40.1367 77.3229 40.0352C77.5671 39.9336 77.8405 39.8828 78.1432 39.8828C78.4479 39.8828 78.7194 39.9385 78.9577 40.0498C79.196 40.1592 79.3806 40.3145 79.5114 40.5156C79.6442 40.7168 79.7106 40.9453 79.7106 41.2012H78.8317C78.8317 41.0059 78.7702 40.8545 78.6472 40.7471C78.5241 40.6377 78.3513 40.583 78.1286 40.583C77.9138 40.583 77.7468 40.6289 77.6276 40.7207C77.5085 40.8105 77.4489 40.9297 77.4489 41.0781C77.4489 41.2168 77.5182 41.333 77.6569 41.4268C77.7975 41.5205 78.0036 41.6084 78.2751 41.6904C78.7751 41.8408 79.1393 42.0273 79.3679 42.25C79.5964 42.4727 79.7106 42.75 79.7106 43.082C79.7106 43.4512 79.571 43.7412 79.2917 43.9521C79.0124 44.1611 78.6364 44.2656 78.1638 44.2656C77.8356 44.2656 77.5368 44.2061 77.2673 44.0869C76.9977 43.9658 76.7917 43.8008 76.6491 43.5918C76.5085 43.3828 76.4382 43.1406 76.4382 42.8652H77.32C77.32 43.3359 77.6013 43.5713 78.1638 43.5713C78.3727 43.5713 78.5358 43.5293 78.653 43.4453C78.7702 43.3594 78.8288 43.2402 78.8288 43.0879Z" fill="#2196F3"/>
</svg>
